<?xml version="1.0" encoding="UTF-8"?>
<svg version="1.1" xmlns="http://www.w3.org/2000/svg" width="306" height="609">
<path d="M0 0 C0.96808594 0.53109375 1.93617188 1.0621875 2.93359375 1.609375 C16.34656333 9.54432037 25.09707429 20.78729047 29.28515625 35.83203125 C30.26476281 40.17334773 31.0476966 44.53559844 31 49 C30 50 30 50 27.86694336 50.11352539 C26.49227905 50.10567017 26.49227905 50.10567017 25.08984375 50.09765625 C24.10048828 50.09443359 23.11113281 50.09121094 22.09179688 50.08789062 C21.05087891 50.07951172 20.00996094 50.07113281 18.9375 50.0625 C17.89271484 50.05798828 16.84792969 50.05347656 15.77148438 50.04882812 C13.1809334 50.03699913 10.59049441 50.02051689 8 50 C7.85304688 49.24976563 7.70609375 48.49953125 7.5546875 47.7265625 C5.23653564 37.14832932 1.49909657 28.81940763 -7.515625 22.40625 C-16.2749511 17.44814089 -26.33879028 16.6358935 -36 19.0625 C-44.77914974 22.04409803 -51.42316495 27.04418523 -55.8125 35.26171875 C-60.52424132 46.12662225 -60.9196024 55.84042113 -56.96484375 66.95703125 C-55.46704574 70.12848211 -53.34180216 72.40503004 -51 75 C-51 75.66 -51 76.32 -51 77 C-50.14921875 77.41572266 -50.14921875 77.41572266 -49.28125 77.83984375 C-46.19605656 79.4088548 -43.21613865 81.14924876 -40.21875 82.87890625 C-33.18775348 86.43154006 -24.09993222 86.11249623 -16.66015625 84.09375 C-7.04505967 80.31076118 -0.7259356 75.20910053 4 66 C4.99 63.69 5.98 61.38 7 59 C14.59 59 22.18 59 30 59 C26.96223147 74.18884263 20.94429291 86.76046039 8.0625 96 C7.051875 96.66 6.04125 97.32 5 98 C4.34 98.66 3.68 99.32 3 100 C-9.75537994 106.56176591 -26.25225359 110.2916349 -40.1875 106 C-42.84151492 105.08711908 -45.40043569 104.06975674 -48 103 C-48.94101563 102.64679688 -49.88203125 102.29359375 -50.8515625 101.9296875 C-63.2754601 96.60515996 -73.02452323 85.24359324 -78.2734375 73.0390625 C-84.2416479 57.25081796 -83.48343118 41.5262131 -76.75 26.14453125 C-71.03279248 14.62890588 -62.3341667 5.95314349 -51 0 C-50.10667969 -0.50660156 -49.21335938 -1.01320312 -48.29296875 -1.53515625 C-34.14942207 -8.33238953 -13.60442873 -7.75158817 0 0 Z " fill="#221A16" transform="translate(227,227)"/>
<path d="M0 0 C3.93337483 0.72903068 5.85874778 2.60864877 8.8203125 5.24609375 C22.83031329 16.51937396 38.50819983 19.36398703 56 18 C66.96047881 16.08681442 76.38957081 11.08934013 83 2 C83.66 2 84.32 2 85 2 C84.46304324 6.72521948 82.29469745 10.10606439 79.75 14 C78.83264162 15.43575619 77.91601115 16.87197765 77 18.30859375 C76.51144531 19.07026855 76.02289063 19.83194336 75.51953125 20.61669922 C72.89014654 24.74074381 70.32137583 28.90212875 67.75 33.0625 C67.21511963 33.92641357 66.68023926 34.79032715 66.12915039 35.68041992 C59.69546646 46.08525615 53.34580404 56.54141416 47 67 C43.4805644 66.39901927 43.09123008 66.11785855 40.73828125 63.078125 C39.91841508 61.80929654 39.11051868 60.53268171 38.3125 59.25 C37.42302605 57.86644683 36.53238043 56.48364627 35.640625 55.1015625 C35.19654297 54.40708008 34.75246094 53.71259766 34.29492188 52.99707031 C32.4534516 50.15709541 30.51041889 47.39272649 28.5625 44.625 C25.11223578 39.67435679 21.8160333 34.64419292 18.5625 29.5625 C13.13556036 21.0952527 7.55474762 12.62351516 1.21875 4.80078125 C0 3 0 3 0 0 Z " fill="#B2EA4C" transform="translate(155,321)"/>
<path d="M0 0 C3.93337483 0.72903068 5.85874778 2.60864877 8.8203125 5.24609375 C22.83031329 16.51937396 38.50819983 19.36398703 56 18 C66.96047881 16.08681442 76.38957081 11.08934013 83 2 C83.66 2 84.32 2 85 2 C84.46304324 6.72521948 82.29469745 10.10606439 79.75 14 C78.83264162 15.43575619 77.91601115 16.87197765 77 18.30859375 C76.51144531 19.07026855 76.02289063 19.83194336 75.51953125 20.61669922 C72.89014654 24.74074381 70.32137583 28.90212875 67.75 33.0625 C67.21511963 33.92641357 66.68023926 34.79032715 66.12915039 35.68041992 C59.69546646 46.08525615 53.34580404 56.54141416 47 67 C43.4805644 66.39901927 43.09123008 66.11785855 40.73828125 63.078125 C39.91841508 61.80929654 39.11051868 60.53268171 38.3125 59.25 C37.42302605 57.86644683 36.53238043 56.48364627 35.640625 55.1015625 C35.19654297 54.40708008 34.75246094 53.71259766 34.29492188 52.99707031 C32.4534516 50.15709541 30.51041889 47.39272649 28.5625 44.625 C25.11223578 39.67435679 21.8160333 34.64419292 18.5625 29.5625 C13.13556036 21.0952527 7.55474762 12.62351516 1.21875 4.80078125 C0 3 0 3 0 0 Z M15 14 C15.99 17.3 16.98 20.6 18 24 C18.66 24 19.32 24 20 24 C20.66 26.64 21.32 29.28 22 32 C22.66 32 23.32 32 24 32 C24.1546875 33.175625 24.1546875 33.175625 24.3125 34.375 C24.77595022 37.33045181 24.77595022 37.33045181 28 39 C28.33 39.99 28.66 40.98 29 42 C29.99 42.66 30.98 43.32 32 44 C33.1875 47.125 33.1875 47.125 34 50 C34.99 50 35.98 50 37 50 C37 51.65 37 53.3 37 55 C38.32 55.66 39.64 56.32 41 57 C43.2773501 54.18490007 43.2773501 54.18490007 43 51 C43.99 51 44.98 51 46 51 C46 51.66 46 52.32 46 53 C50.37859255 52.49477778 52.81651224 49.82172778 56 47 C55.67 45.35 55.34 43.7 55 42 C55.99 42.33 56.98 42.66 58 43 C58.103125 42.360625 58.20625 41.72125 58.3125 41.0625 C58.539375 40.381875 58.76625 39.70125 59 39 C59.99 38.67 60.98 38.34 62 38 C62 37.34 62 36.68 62 36 C62.99 35.67 63.98 35.34 65 35 C65 33.35 65 31.7 65 30 C66.32 29.67 67.64 29.34 69 29 C69.33 27.68 69.66 26.36 70 25 C66.97580475 25.58803797 63.98241547 26.22678118 61 27 C61.33 26.01 61.66 25.02 62 24 C61.195625 23.87625 60.39125 23.7525 59.5625 23.625 C58.716875 23.41875 57.87125 23.2125 57 23 C56.505 22.01 56.505 22.01 56 21 C49.73 21.33 43.46 21.66 37 22 C37 21.34 37 20.68 37 20 C35.66195312 19.69255859 35.66195312 19.69255859 34.296875 19.37890625 C33.12640625 19.10949219 31.9559375 18.84007812 30.75 18.5625 C29.00976562 18.16224609 29.00976562 18.16224609 27.234375 17.75390625 C22.96230643 16.75812215 19.05649837 15.69020765 15 14 Z " fill="#BAE965" transform="translate(155,321)"/>
<path d="M0 0 C0.66 0 1.32 0 2 0 C1.49045746 5.12539847 -1.07819986 8.72456545 -3.8125 12.9375 C-4.25142578 13.62779297 -4.69035156 14.31808594 -5.14257812 15.02929688 C-7.71016573 19.05426704 -10.33895134 23.03634011 -13 27 C-13.495 26.01 -13.495 26.01 -14 25 C-13.67 24.34 -13.34 23.68 -13 23 C-13.7425 23.33 -14.485 23.66 -15.25 24 C-18 25 -18 25 -22 25 C-22 24.01 -22 23.02 -22 22 C-26.84422847 19.45251754 -31.49160376 19.77183572 -36.8125 19.875 C-38.13797852 19.88853516 -38.13797852 19.88853516 -39.49023438 19.90234375 C-41.66027359 19.92580363 -43.83017247 19.96167135 -46 20 C-46 19.34 -46 18.68 -46 18 C-36.76 17.67 -27.52 17.34 -18 17 C-18 16.34 -18 15.68 -18 15 C-17.01 14.67 -16.02 14.34 -15 14 C-14.1646875 13.1646875 -14.1646875 13.1646875 -13.3125 12.3125 C-10.70979507 9.70979507 -7.90279144 7.68181814 -4.90234375 5.5625 C-2.89362635 4.0416246 -2.89362635 4.0416246 -1.37890625 1.8125 C-0.92386719 1.214375 -0.46882813 0.61625 0 0 Z " fill="#B5E857" transform="translate(238,323)"/>
<path d="M0 0 C0.33 0.66 0.66 1.32 1 2 C0.06298828 3.91674805 0.06298828 3.91674805 -1.4296875 6.26171875 C-1.97407471 7.12708252 -2.51846191 7.99244629 -3.0793457 8.8840332 C-3.67191162 9.80917725 -4.26447754 10.73432129 -4.875 11.6875 C-6.0750779 13.59060434 -7.27429078 15.4942544 -8.47265625 17.3984375 C-9.36815186 18.81527832 -9.36815186 18.81527832 -10.28173828 20.26074219 C-12.67770735 24.08040302 -15.00423897 27.93938926 -17.3125 31.8125 C-17.69067871 32.44567139 -18.06885742 33.07884277 -18.45849609 33.73120117 C-19.30705201 35.15330686 -20.15377537 36.57650585 -21 38 C-22.859375 37.75390625 -22.859375 37.75390625 -25 37 C-26.265625 35.15234375 -26.265625 35.15234375 -27.25 32.9375 C-27.75273437 31.83728516 -27.75273437 31.83728516 -28.265625 30.71484375 C-28.50796875 30.14894531 -28.7503125 29.58304687 -29 29 C-28.2884375 28.1028125 -28.2884375 28.1028125 -27.5625 27.1875 C-25.83534256 24.99617076 -25.83534256 24.99617076 -25 22 C-24.01 22 -23.02 22 -22 22 C-22 22.66 -22 23.32 -22 24 C-20.32111559 23.02065076 -18.65661761 22.01656081 -17 21 C-15.8553125 20.319375 -15.8553125 20.319375 -14.6875 19.625 C-12.71212853 18.07673784 -12.71212853 18.07673784 -12.75 15.3125 C-12.87375 14.1678125 -12.87375 14.1678125 -13 13 C-12.01 12.67 -11.02 12.34 -10 12 C-8.64172029 10.35360035 -7.30745749 8.68704193 -6 7 C-5.34 6.67 -4.68 6.34 -4 6 C-3.34444881 3.47266765 -3.34444881 3.47266765 -3 1 C-2.01 0.67 -1.02 0.34 0 0 Z " fill="#B5E757" transform="translate(223,350)"/>
<path d="M0 0 C0.33 0.66 0.66 1.32 1 2 C-0.00048828 4.02783203 -0.00048828 4.02783203 -1.5703125 6.5078125 C-2.1375 7.41273438 -2.7046875 8.31765625 -3.2890625 9.25 C-3.89492187 10.19875 -4.50078125 11.1475 -5.125 12.125 C-5.70765625 13.05054688 -6.2903125 13.97609375 -6.890625 14.9296875 C-8.04129679 16.75631447 -9.19520959 18.58090429 -10.35253906 20.40332031 C-12.58645503 23.92435325 -14.79370826 27.46160759 -17 31 C-18.59273572 27.81452856 -17.76164121 25.39809153 -17 22 C-15.68671343 20.64691687 -14.35500919 19.31129922 -13 18 C-12.66501699 15.33165034 -12.66501699 15.33165034 -13 13 C-12.01 12.67 -11.02 12.34 -10 12 C-8.64172029 10.35360035 -7.30745749 8.68704193 -6 7 C-5.34 6.67 -4.68 6.34 -4 6 C-3.34444881 3.47266765 -3.34444881 3.47266765 -3 1 C-2.01 0.67 -1.02 0.34 0 0 Z " fill="#CAEC87" transform="translate(223,350)"/>
<path d="M0 0 C0.66 0 1.32 0 2 0 C1.49045746 5.12539847 -1.07819986 8.72456545 -3.8125 12.9375 C-4.25142578 13.62779297 -4.69035156 14.31808594 -5.14257812 15.02929688 C-7.71016573 19.05426704 -10.33895134 23.03634011 -13 27 C-13.33 26.34 -13.66 25.68 -14 25 C-13.22265625 22.8359375 -13.22265625 22.8359375 -12.0625 20.375 C-11.68222656 19.55773437 -11.30195313 18.74046875 -10.91015625 17.8984375 C-10.60980469 17.27195312 -10.30945313 16.64546875 -10 16 C-9.34 16 -8.68 16 -8 16 C-8 15.01 -8 14.02 -8 13 C-7.34 13 -6.68 13 -6 13 C-6 12.01 -6 11.02 -6 10 C-7.32 10.33 -8.64 10.66 -10 11 C-10 11.66 -10 12.32 -10 13 C-11.32 12.67 -12.64 12.34 -14 12 C-13.32453125 11.55269531 -12.6490625 11.10539062 -11.953125 10.64453125 C-7.24020765 7.45037195 -3.38313586 4.6518118 0 0 Z " fill="#D9F0A7" transform="translate(238,323)"/>
<path d="M0 0 C1.9375 0.6875 1.9375 0.6875 4 2 C4.5 4.5 4.5 4.5 5 7 C6.96758273 8.36020151 6.96758273 8.36020151 9 9 C9 9.99 9 10.98 9 12 C9.639375 12.20625 10.27875 12.4125 10.9375 12.625 C13 14 13 14 13.75 17.125 C13.87375 18.548125 13.87375 18.548125 14 20 C14.99 20 15.98 20 17 20 C18.12880057 23.31114834 19.21302675 26.58978257 20 30 C17.00162111 27.19106117 14.82621071 24.37656454 12.6875 20.875 C9.79129406 16.20611629 6.72164247 11.72435286 3.48046875 7.2890625 C1.95645455 4.93267115 0.9536432 2.63298561 0 0 Z " fill="#D3F09D" transform="translate(175,351)"/>
<path d="M0 0 C3.20907677 0.58600532 4.88755232 1.52517063 7.25 3.75 C10.88657658 7.01581931 14.79380175 9.530907 19 12 C16 13 16 13 13 12 C12.67 11.34 12.34 10.68 12 10 C10.35636866 9.27840576 8.68949614 8.60648579 7 8 C7.33 9.32 7.66 10.64 8 12 C2.00704225 6.16901408 2.00704225 6.16901408 0 3 C0 2.01 0 1.02 0 0 Z " fill="#D4EEA1" transform="translate(155,321)"/>
<path d="M0 0 C-1.32 0.33 -2.64 0.66 -4 1 C-4 1.66 -4 2.32 -4 3 C-6.66774682 4.33387341 -8.72284426 4.12959752 -11.70703125 4.1328125 C-13.4230957 4.13474609 -13.4230957 4.13474609 -15.17382812 4.13671875 C-16.37458984 4.13285156 -17.57535156 4.12898438 -18.8125 4.125 C-20.59624023 4.13080078 -20.59624023 4.13080078 -22.41601562 4.13671875 C-23.56392578 4.13542969 -24.71183594 4.13414062 -25.89453125 4.1328125 C-26.94487549 4.13168457 -27.99521973 4.13055664 -29.07739258 4.12939453 C-31.82702393 4.00765828 -34.32356146 3.62122245 -37 3 C-37 2.67 -37 2.34 -37 2 C-36.33057373 2.01571045 -35.66114746 2.0314209 -34.97143555 2.04760742 C-31.8768797 2.1107725 -28.7824602 2.14924564 -25.6875 2.1875 C-24.63498047 2.21263672 -23.58246094 2.23777344 -22.49804688 2.26367188 C-15.94139461 2.32419482 -10.39912784 1.59030179 -4.15551758 -0.44799805 C-2 -1 -2 -1 0 0 Z " fill="#E4F6B7" transform="translate(224,337)"/>
<path d="M0 0 C2.97 0.495 2.97 0.495 6 1 C-0.44736842 7.63157895 -0.44736842 7.63157895 -4 10 C-6.3125 9.75 -6.3125 9.75 -8 9 C-3.375 4.125 -3.375 4.125 0 3 C0 2.01 0 1.02 0 0 Z " fill="#514A48" transform="translate(234,317)"/>
<path d="M0 0 C2 0 2 0 4.125 1.875 C6 4 6 4 6 6 C6.66 6 7.32 6 8 6 C10 9 10 9 9.625 11.1875 C9.41875 11.785625 9.2125 12.38375 9 13 C4.66965806 9.15080717 2.3439244 5.27710354 0 0 Z " fill="#CAEC89" transform="translate(167,339)"/>
<path d="M0 0 C1.60433809 0.47859241 3.20846416 0.95789558 4.8125 1.4375 C6.15248047 1.83775391 6.15248047 1.83775391 7.51953125 2.24609375 C9.35473055 2.80387873 11.18033726 3.39344575 13 4 C13 4.66 13 5.32 13 6 C14.65 6 16.3 6 18 6 C18 6.33 18 6.66 18 7 C13.25579842 7.23142447 9.53165029 6.3427112 5 5 C3.68 5 2.36 5 1 5 C0.67 3.35 0.34 1.7 0 0 Z " fill="#CBEC89" transform="translate(174,334)"/>
<path d="M0 0 C7.48291572 6.15034169 7.48291572 6.15034169 10 10 C9.67 10.66 9.34 11.32 9 12 C7.35 11.67 5.7 11.34 4 11 C3.67 8.69 3.34 6.38 3 4 C2.34 4 1.68 4 1 4 C0.67 2.68 0.34 1.36 0 0 Z " fill="#4D4644" transform="translate(238,235)"/>
<path d="M0 0 C0 3.10551666 -0.5393715 4.35261084 -2 7 C-3.875 6.8125 -3.875 6.8125 -6 6 C-7.25 3.4375 -7.25 3.4375 -8 1 C-7.05125 1.020625 -6.1025 1.04125 -5.125 1.0625 C-2.09333717 1.22551826 -2.09333717 1.22551826 0 0 Z " fill="#D7EFA1" transform="translate(204,381)"/>
<path d="M0 0 C0.66 0 1.32 0 2 0 C0.72278474 4.99275057 -1.17330957 7.57611908 -5 11 C-5 8.36 -5 5.72 -5 3 C-3.35 2.67 -1.7 2.34 0 2 C0 1.34 0 0.68 0 0 Z " fill="#4B4543" transform="translate(248,304)"/>
<path d="M0 0 C0.99 0 1.98 0 3 0 C3.33 1.32 3.66 2.64 4 4 C3.360625 4.268125 2.72125 4.53625 2.0625 4.8125 C-0.33131686 5.88667752 -0.33131686 5.88667752 -1 9 C-0.34 9 0.32 9 1 9 C0.67 9.66 0.34 10.32 0 11 C-0.99 10.67 -1.98 10.34 -3 10 C-3.875 8.125 -3.875 8.125 -4 6 C-2.625 4.4375 -2.625 4.4375 -1 3 C-0.67 2.01 -0.34 1.02 0 0 Z " fill="#B5E960" transform="translate(198,372)"/>
<path d="M0 0 C0.99 0.33 1.98 0.66 3 1 C3.33 2.65 3.66 4.3 4 6 C2.68 6.33 1.36 6.66 0 7 C0 6.34 0 5.68 0 5 C-0.66 5 -1.32 5 -2 5 C-1.125 1.125 -1.125 1.125 0 0 Z " fill="#B1EB48" transform="translate(199,376)"/>
<path d="M0 0 C0.33 0.66 0.66 1.32 1 2 C-0.43359375 4.6015625 -0.43359375 4.6015625 -2.4375 7.625 C-3.42556641 9.12933594 -3.42556641 9.12933594 -4.43359375 10.6640625 C-4.95050781 11.43492187 -5.46742188 12.20578125 -6 13 C-7 11 -7 11 -6.6875 8.9375 C-6 7 -6 7 -4 6 C-3.34444881 3.47266765 -3.34444881 3.47266765 -3 1 C-2.01 0.67 -1.02 0.34 0 0 Z " fill="#D7F0A4" transform="translate(223,350)"/>
<path d="M0 0 C0.66 0 1.32 0 2 0 C1.63287028 2.71675995 1.27255401 4.61063713 -0.3125 6.875 C-1.1478125 7.431875 -1.1478125 7.431875 -2 8 C-4.10546875 7.5703125 -4.10546875 7.5703125 -6 7 C-5.04882866 5.8274869 -4.08882991 4.66212985 -3.125 3.5 C-2.59132812 2.8503125 -2.05765625 2.200625 -1.5078125 1.53125 C-0.76144531 0.77328125 -0.76144531 0.77328125 0 0 Z " fill="#E8F3C8" transform="translate(238,323)"/>
<path d="M0 0 C0 0.99 0 1.98 0 3 C-0.66 3 -1.32 3 -2 3 C-2.33 3.99 -2.66 4.98 -3 6 C-3 5.34 -3 4.68 -3 4 C-3.7425 4.350625 -4.485 4.70125 -5.25 5.0625 C-8.1322726 6.04509293 -9.21176345 6.0326802 -12 5 C-8.91190305 3.23537317 -7.76687864 3 -4 3 C-4 2.34 -4 1.68 -4 1 C-2 0 -2 0 0 0 Z " fill="#BAE461" transform="translate(232,333)"/>
<path d="M0 0 C0.99 0 1.98 0 3 0 C4.12880057 3.31114834 5.21302675 6.58978257 6 10 C3.66475218 7.74259377 1.81294927 5.7194239 0 3 C0 2.01 0 1.02 0 0 Z " fill="#DDF3B1" transform="translate(189,371)"/>
<path d="M0 0 C1.875 0.3125 1.875 0.3125 4 1 C4.66 1.99 5.32 2.98 6 4 C5.01 4.495 5.01 4.495 4 5 C3.67 5.66 3.34 6.32 3 7 C0 3.375 0 3.375 0 0 Z " fill="#EBF4CD" transform="translate(155,321)"/>
<path d="M0 0 C-3.26913624 1.03115279 -5.86041348 0.9638984 -9.25 0.5625 C-10.14203125 0.46066406 -11.0340625 0.35882813 -11.953125 0.25390625 C-12.62859375 0.17011719 -13.3040625 0.08632812 -14 0 C-14 -0.33 -14 -0.66 -14 -1 C-12.41870971 -1.22331199 -10.83478911 -1.42804644 -9.25 -1.625 C-8.36828125 -1.74101562 -7.4865625 -1.85703125 -6.578125 -1.9765625 C-3.77140122 -2.00207817 -2.36615134 -1.44843844 0 0 Z " fill="#75706E" transform="translate(210,244)"/>
<path d="M0 0 C5.75 0.75 5.75 0.75 8 3 C6.35 3 4.7 3 3 3 C2.67 3.66 2.34 4.32 2 5 C2 4.34 2 3.68 2 3 C1.34 3 0.68 3 0 3 C0 2.01 0 1.02 0 0 Z " fill="#5C5650" transform="translate(217,224)"/>
<path d="M0 0 C-0.33 0.99 -0.66 1.98 -1 3 C-3.5625 4.1875 -3.5625 4.1875 -6 5 C-6.66 4.34 -7.32 3.68 -8 3 C-2.25 0 -2.25 0 0 0 Z " fill="#5D5957" transform="translate(183,225)"/>
<path d="" fill="#FFFFFF" transform="translate(0,0)"/>
<path d="" fill="#FFFFFF" transform="translate(0,0)"/>
</svg>
