<?xml version="1.0" encoding="iso-8859-1"?>
<!-- Uploaded to: SVG Repo, www.svgrepo.com, Generator: SVG Repo Mixer Tools -->
<svg fill="#000000" height="800px" width="800px" version="1.1" id="Layer_1" xmlns="http://www.w3.org/2000/svg" xmlns:xlink="http://www.w3.org/1999/xlink" 
	 viewBox="0 0 512 512" xml:space="preserve">
<g>
	<g>
		<polygon points="257.46,277.366 257.46,367.334 257.46,388.209 257.46,409.084 320.085,409.084 320.085,388.209 320.085,367.334 
			320.085,277.366 		"/>
	</g>
</g>
<g>
	<g>
		<path d="M452.294,47.249H347.919h-20.875h-20.875h-62.625h-41.75h-62.625h-41.75h-6.958C40.578,47.249,0,87.829,0,137.708v250.501
			c0,11.529,9.345,20.875,20.875,20.875h51.626c9.111,32.088,38.657,55.667,73.625,55.667c23.066,0,43.764-10.271,57.809-26.461
			c7.249-8.354,12.713-18.284,15.814-29.206c1.886-6.641,2.92-13.638,2.92-20.875V277.366h-6.958h-13.917h-83.501
			c-11.53,0-20.875-9.346-20.875-20.875V88.999h41.75v146.617h83.5V88.999h34.792v146.617h62.625V88.999h20.875h20.875v6.253
			v140.364h43.076h21.84h21.842l-32.017-104.047c-5.184-16.848-11.387-30.909-18.79-42.57h54.508
			c11.527,0,20.875-9.346,20.875-20.875S463.822,47.249,452.294,47.249z M118.312,367.334c6.352-8.445,16.455-13.917,27.814-13.917
			c11.356,0,21.46,5.472,27.814,13.917c4.377,5.819,6.978,13.048,6.978,20.875s-2.601,15.057-6.978,20.875
			c-6.354,8.445-16.458,13.917-27.814,13.917c-11.359,0-21.462-5.472-27.814-13.917c-4.378-5.819-6.978-13.048-6.978-20.875
			S113.932,373.153,118.312,367.334z"/>
	</g>
</g>
<g>
	<g>
		<path d="M471.928,320.927l-10.486-43.561h-21.84H417.76h-55.924v89.968v20.875v20.875c9.111,32.088,38.654,55.667,73.622,55.667
			c42.207,0,76.542-34.337,76.542-76.542C512,359.198,495.779,333.906,471.928,320.927z M463.273,409.084
			c-6.353,8.445-16.455,13.917-27.814,13.917c-11.356,0-21.46-5.472-27.814-13.917c-4.375-5.819-6.978-13.048-6.978-20.875
			s2.601-15.057,6.978-20.875c6.356-8.445,16.458-13.917,27.814-13.917c0.952,0,1.891,0.049,2.821,0.124
			c11.459,0.924,21.369,7.418,27.001,16.771c2.84,4.714,4.594,10.151,4.914,15.964c0.035,0.64,0.054,1.283,0.054,1.933
			C470.25,396.036,467.651,403.266,463.273,409.084z"/>
	</g>
</g>
</svg>